<svg xmlns:dc="http://purl.org/dc/elements/1.1/" xmlns:cc="http://creativecommons.org/ns#" xmlns:rdf="http://www.w3.org/1999/02/22-rdf-syntax-ns#" xmlns:svg="http://www.w3.org/2000/svg" xmlns="http://www.w3.org/2000/svg" xmlns:sodipodi="http://sodipodi.sourceforge.net/DTD/sodipodi-0.dtd" xmlns:inkscape="http://www.inkscape.org/namespaces/inkscape" version="1.1" width="377.1428527832031" height="551.4285888671875" inkscape:version="0.48.4 r9939" sodipodi:docname="Anglo-american_playing_cards_deck.0.02.svg" inkscape:export-filename="D:\Users\Дмитрий\Desktop\яяяяПрочее\cards\Anglo-american_playing_cards_deck.png" inkscape:export-xdpi="90" inkscape:export-ydpi="90"><rect id="backgroundrect" width="100%" height="100%" x="0" y="0" fill="none" stroke="none"/>
  <sodipodi:namedview pagecolor="#ffffff" bordercolor="#666666" borderopacity="1" objecttolerance="10" gridtolerance="10" guidetolerance="10" inkscape:pageopacity="0" inkscape:pageshadow="2" inkscape:window-width="1366" inkscape:window-height="741" id="namedview7377" showgrid="true" inkscape:zoom="0.22960784" inkscape:cx="2550" inkscape:cy="1155" inkscape:window-x="-9" inkscape:window-y="-9" inkscape:window-maximized="1" inkscape:current-layer="svg2">
    <inkscape:grid type="xygrid" id="grid10354" empspacing="5" visible="true" enabled="true" snapvisiblegridlinesonly="true" spacingx="390px" spacingy="570px" originy="30px" originx="30px"/>
  </sodipodi:namedview>
  <metadata id="metadata14752">
    <rdf:RDF>
      <cc:Work rdf:about="">
        <dc:format>image/svg+xml</dc:format>
        <dc:type rdf:resource="http://purl.org/dc/dcmitype/StillImage"/>
        <dc:title/>
      </cc:Work>
    </rdf:RDF>
  </metadata>
  <defs id="defs14750">
    <inkscape:path-effect effect="spiro" id="path-effect17935-9-8" is_visible="true"/>
    <inkscape:path-effect effect="spiro" id="path-effect17939-4-8" is_visible="true"/>
    <inkscape:path-effect effect="spiro" id="path-effect17935-9-8-6" is_visible="true"/>
    <inkscape:path-effect effect="spiro" id="path-effect17939-4-8-5" is_visible="true"/>
    <inkscape:path-effect effect="spiro" id="path-effect17935" is_visible="true"/>
    <inkscape:path-effect effect="spiro" id="path-effect17939" is_visible="true"/>
    <inkscape:path-effect effect="spiro" id="path-effect17935-8" is_visible="true"/>
    <inkscape:path-effect effect="spiro" id="path-effect17939-6" is_visible="true"/>
    <inkscape:path-effect effect="spiro" id="path-effect17935-9-8-2-5" is_visible="true"/>
    <inkscape:path-effect effect="spiro" id="path-effect17935-9-8-2-5-0" is_visible="true"/>
    <inkscape:path-effect effect="spiro" id="path-effect17935-9-8-2-5-09-4" is_visible="true"/>
    <inkscape:path-effect effect="spiro" id="path-effect17935-9-8-2-5-09-4-1" is_visible="true"/>
    <inkscape:path-effect effect="spiro" id="path-effect17935-9-8-2" is_visible="true"/>
    <inkscape:path-effect effect="spiro" id="path-effect17939-4-8-9" is_visible="true"/>
    <inkscape:path-effect effect="spiro" id="path-effect17935-9-8-6-0" is_visible="true"/>
    <inkscape:path-effect effect="spiro" id="path-effect17939-4-8-5-3" is_visible="true"/>
    <inkscape:path-effect effect="spiro" id="path-effect17935-9-8-2-5-08" is_visible="true"/>
    <inkscape:path-effect effect="spiro" id="path-effect17935-9-8-2-5-0-8" is_visible="true"/>
    <inkscape:path-effect effect="spiro" id="path-effect17935-9-8-2-5-09-4-0" is_visible="true"/>
    <inkscape:path-effect effect="spiro" id="path-effect17935-9-8-2-5-09-4-1-8" is_visible="true"/>
    <inkscape:path-effect effect="spiro" id="path-effect17935-89" is_visible="true"/>
    <inkscape:path-effect effect="spiro" id="path-effect17939-8" is_visible="true"/>
    <inkscape:path-effect effect="spiro" id="path-effect17935-8-7" is_visible="true"/>
    <inkscape:path-effect effect="spiro" id="path-effect17939-6-0" is_visible="true"/>
  </defs>
  
  
  
  
  
  
  
  
  
  
  
  
  
  
  
  
  
  
  
  
  
  
  
  
  
  
  
  
  
  
  
  
  
  
  
  
  
  
  
  
  
  
  
  
  
  
  
  
  
  
  
  
  
<g class="currentLayer" style=""><title>Layer 1</title><g id="g3033" class="selected">
    <rect rx="29.944446563720703" ry="29.944446563720703" y="2.500000476837158" x="7.166676998138428" height="539" width="359" id="rect6472-07" style="fill:#ffffff;stroke:#000000;stroke-width:0.99999976"/>
    <path style="fill:#000000;fill-opacity:1;stroke:none" id="rect3163-52-9-8-1-38" d="m36.66667699813843,31.99989785964965 c-5.54,0 -10,4.46 -10,10 l0,5 l5,0 l0,-5 c0,-2.77 2.23,-5 5,-5 c2.77,0 5,2.23 5,5 l0,5 c0,1.1275 -0.3750800000000005,3.0654 -1,3.9 c-4.46327,9.10415 -9.27824,17.12865 -14,26.1 l0,5 l10,0 l10,0 l0,-5 l0,-5 l-5,0 l0,5 l-5,0 l-4.5,0 c4.48873,-7.91544 8.21831,-15.57184 12.5,-23.6 c1.25012,-1.6693000000000002 2,-4.1448 2,-6.4 l0,-5 c0,-5.54 -4.46,-10 -10,-10 z" inkscape:connector-curvature="0"/>
    <path style="fill:#000000;fill-opacity:1;stroke:none" id="rect3163-52-9-8-1-38-8" d="m336.6666769981384,512.0000178596497 c5.54,0 10,-4.46 10,-10 l0,-5 l-5,0 l0,5 c0,2.77 -2.23,5 -5,5 c-2.77,0 -5,-2.23 -5,-5 l0,-5 c0,-1.1275 0.3750800000000005,-3.0654 1,-3.9 c4.46327,-9.10414 9.27824,-17.12864 14,-26.10004 l0,-5 l-10,0 l-10,0 l0,5 l0,5 l5,0 l0,-5 l5,0 l4.5,0 c-4.48873,7.9155 -8.21831,15.5719 -12.5,23.60004 c-1.25012,1.6693000000000002 -2,4.1448 -2,6.4 l0,5 c0,5.54 4.46,10 10,10 z" inkscape:connector-curvature="0"/>
    <path sodipodi:nodetypes="cssaacaassccsccscc" inkscape:connector-curvature="0" id="path3037-7-4-0" d="m39.16667699813843,119.99999785964962 c0.5,2 2.5,7 6,7 c4.5,0 6.5,-4 6.5,-9 c0,-3.5 -1.289475,-5.80614 -2.5,-8.5 c-1.28894,-2.86836 -3.18966,-5.4287 -5,-8 c-2.32265,-3.29895 -7.5,-9.5 -7.5,-9.5 c0,0 -5.17735,6.20105 -7.5,9.5 c-1.81034,2.5713 -3.71106,5.13164 -5,8 c-1.210525,2.69386 -2.5,5 -2.5,8.5 c0,5 2,9 6.5,9 c3.5,0 5.5,-5 6,-7 c0.5,-0.5 0.5,0 0.5,0.5 c-0.5,4 -0.5,5 -1,8 c-0.5,3 -2,8.5 -2,8.5 c2.5,-1 7.5,-1 10,0 c0,0 -1.5,-5.5 -2,-8.5 c-0.5,-3 -0.5,-4 -1,-8 c0,-0.5 0,-1 0.5,-0.5 z" style="fill:#000000;fill-opacity:1;stroke:none"/>
    <path sodipodi:nodetypes="cssaacaassccsccscc" inkscape:connector-curvature="0" id="path3037-7-4-1-3" d="m339.1666769981384,423.9999978596496 c0.5,-2 2.5,-7 6,-7 c4.5,0 6.5,4 6.5,9 c0,3.5 -1.2894700000000001,5.80614 -2.5,8.5 c-1.28894,2.86836 -3.18966,5.4287 -5,8 c-2.32265,3.29895 -7.5,9.5 -7.5,9.5 c0,0 -5.17735,-6.20105 -7.5,-9.5 c-1.81034,-2.5713 -3.71106,-5.13164 -5,-8 c-1.21053,-2.69386 -2.5,-5 -2.5,-8.5 c0,-5 2,-9 6.5,-9 c3.5,0 5.5,5 6,7 c0.5,0.5 0.5,0 0.5,-0.5 c-0.5,-4 -0.5,-5 -1,-8 c-0.5,-3 -2,-8.5 -2,-8.5 c2.5,1 7.5,1 10,0 c0,0 -1.5,5.5 -2,8.5 c-0.5,3 -0.5,4 -1,8 c0,0.5 0,1 0.5,0.5 z" style="fill:#000000;fill-opacity:1;stroke:none"/>
    <path style="fill:#000000;fill-opacity:1;stroke:none" d="m191.66667699813843,102.99999785964962 c1,4 5,14 12,14 c9,0 13,-8 13,-18 c0,-7 -2.57895,-11.61229 -5,-17 c-2.57788,-5.73673 -6.37932,-10.85741 -10,-16 c-4.6453,-6.5979 -15,-19 -15,-19 c0,0 -10.3547,12.4021 -15,19 c-3.62068,5.14259 -7.42212,10.26327 -10,16 c-2.42105,5.38771 -5,10 -5,17 c0,10 4,18 13,18 c7,0 11,-10 12,-14 c1,-1 1,0 1,1 c-1,8 -1,10 -2,16 c-1,6 -4,17 -4,17 c5,-2 15,-2 20,0 c0,0 -3,-11 -4,-17 c-1,-6 -1,-8 -2,-16 c0,-1 0,-2 1,-1 z" id="path3037-7-40" inkscape:connector-curvature="0" sodipodi:nodetypes="cssaacaassccsccscc"/>
    <path style="fill:#000000;fill-opacity:1;stroke:none" d="m191.66667699813843,441.0000178596497 c1,-4 5,-14 12,-14 c9,0 13,8 13,18 c0,7 -2.57895,11.61229 -5,17 c-2.57788,5.73673 -6.37932,10.85741 -10,16 c-4.6453,6.5979 -15,19 -15,19 c0,0 -10.3547,-12.4021 -15,-19 c-3.62068,-5.14259 -7.42212,-10.26327 -10,-16 c-2.42105,-5.38771 -5,-10 -5,-17 c0,-10 4,-18 13,-18 c7,0 11,10 12,14 c1,1 1,0 1,-1 c-1,-8 -1,-10 -2,-16 c-1,-6 -4,-17.00002 -4,-17.00002 c5,2 15,2 20,0 c0,0 -3,11.00002 -4,17.00002 c-1,6 -1,8 -2,16 c0,1 0,2 1,1 z" id="path3037-7-7-0" inkscape:connector-curvature="0" sodipodi:nodetypes="cssaacaassccsccscc"/>
  </g></g></svg>