<svg xmlns:dc="http://purl.org/dc/elements/1.1/" xmlns:cc="http://creativecommons.org/ns#" xmlns:rdf="http://www.w3.org/1999/02/22-rdf-syntax-ns#" xmlns:svg="http://www.w3.org/2000/svg" xmlns="http://www.w3.org/2000/svg" xmlns:sodipodi="http://sodipodi.sourceforge.net/DTD/sodipodi-0.dtd" xmlns:inkscape="http://www.inkscape.org/namespaces/inkscape" version="1.1" width="377.1428527832031" height="551.4285888671875" inkscape:version="0.48.4 r9939" sodipodi:docname="Anglo-american_playing_cards_deck.0.02.svg" inkscape:export-filename="D:\Users\Дмитрий\Desktop\яяяяПрочее\cards\Anglo-american_playing_cards_deck.png" inkscape:export-xdpi="90" inkscape:export-ydpi="90"><rect id="backgroundrect" width="100%" height="100%" x="0" y="0" fill="none" stroke="none"/>
  <sodipodi:namedview pagecolor="#ffffff" bordercolor="#666666" borderopacity="1" objecttolerance="10" gridtolerance="10" guidetolerance="10" inkscape:pageopacity="0" inkscape:pageshadow="2" inkscape:window-width="1366" inkscape:window-height="741" id="namedview7377" showgrid="true" inkscape:zoom="0.22960784" inkscape:cx="2550" inkscape:cy="1155" inkscape:window-x="-9" inkscape:window-y="-9" inkscape:window-maximized="1" inkscape:current-layer="svg2">
    <inkscape:grid type="xygrid" id="grid10354" empspacing="5" visible="true" enabled="true" snapvisiblegridlinesonly="true" spacingx="390px" spacingy="570px" originy="30px" originx="30px"/>
  </sodipodi:namedview>
  <metadata id="metadata14752">
    <rdf:RDF>
      <cc:Work rdf:about="">
        <dc:format>image/svg+xml</dc:format>
        <dc:type rdf:resource="http://purl.org/dc/dcmitype/StillImage"/>
        <dc:title/>
      </cc:Work>
    </rdf:RDF>
  </metadata>
  <defs id="defs14750">
    <inkscape:path-effect effect="spiro" id="path-effect17935-9-8" is_visible="true"/>
    <inkscape:path-effect effect="spiro" id="path-effect17939-4-8" is_visible="true"/>
    <inkscape:path-effect effect="spiro" id="path-effect17935-9-8-6" is_visible="true"/>
    <inkscape:path-effect effect="spiro" id="path-effect17939-4-8-5" is_visible="true"/>
    <inkscape:path-effect effect="spiro" id="path-effect17935" is_visible="true"/>
    <inkscape:path-effect effect="spiro" id="path-effect17939" is_visible="true"/>
    <inkscape:path-effect effect="spiro" id="path-effect17935-8" is_visible="true"/>
    <inkscape:path-effect effect="spiro" id="path-effect17939-6" is_visible="true"/>
    <inkscape:path-effect effect="spiro" id="path-effect17935-9-8-2-5" is_visible="true"/>
    <inkscape:path-effect effect="spiro" id="path-effect17935-9-8-2-5-0" is_visible="true"/>
    <inkscape:path-effect effect="spiro" id="path-effect17935-9-8-2-5-09-4" is_visible="true"/>
    <inkscape:path-effect effect="spiro" id="path-effect17935-9-8-2-5-09-4-1" is_visible="true"/>
    <inkscape:path-effect effect="spiro" id="path-effect17935-9-8-2" is_visible="true"/>
    <inkscape:path-effect effect="spiro" id="path-effect17939-4-8-9" is_visible="true"/>
    <inkscape:path-effect effect="spiro" id="path-effect17935-9-8-6-0" is_visible="true"/>
    <inkscape:path-effect effect="spiro" id="path-effect17939-4-8-5-3" is_visible="true"/>
    <inkscape:path-effect effect="spiro" id="path-effect17935-9-8-2-5-08" is_visible="true"/>
    <inkscape:path-effect effect="spiro" id="path-effect17935-9-8-2-5-0-8" is_visible="true"/>
    <inkscape:path-effect effect="spiro" id="path-effect17935-9-8-2-5-09-4-0" is_visible="true"/>
    <inkscape:path-effect effect="spiro" id="path-effect17935-9-8-2-5-09-4-1-8" is_visible="true"/>
    <inkscape:path-effect effect="spiro" id="path-effect17935-89" is_visible="true"/>
    <inkscape:path-effect effect="spiro" id="path-effect17939-8" is_visible="true"/>
    <inkscape:path-effect effect="spiro" id="path-effect17935-8-7" is_visible="true"/>
    <inkscape:path-effect effect="spiro" id="path-effect17939-6-0" is_visible="true"/>
  </defs>
  
  
  
  
  
  
  
  
  
  
  
  
  
  
  
  
  
  
  
  
  
  
  
  
  
  
  
  
  
  
  
  
  
  
  
  
  
  
  
  
  
  
  
  
  
  
  
  
  
  
  
  
  
<g class="currentLayer" style=""><title>Layer 1</title><g id="g3044" class="">
    <rect rx="29.944446563720703" ry="29.944446563720703" y="7.50006103515625" x="12.166748046875" height="539" width="359" id="rect6472-33" style="fill:#ffffff;stroke:#000000;stroke-width:0.99999976"/>
    <path style="fill:#ff5555;fill-opacity:1;stroke:none" id="rect3980-7-6-2-9-9" d="m41.666748046875,36.99995841796863 l-10,35.00001 l0,4.99999 l12,0 l0,10 l5,0 l0,-10 l3,0 l0,-4.99999 l-3,0 l0,-14.99999 l-5,0 l0,14.99999 l-6.8,0 l9.99999,-35.00001 z" inkscape:connector-curvature="0"/>
    <path style="fill:#ff5555;fill-opacity:1;stroke:none" id="rect3980-7-6-2-9-9-8" d="m341.666748046875,517.0000784179688 l10,-35.00004 l0,-5 l-12,0 l0,-10 l-5,0 l0,10 l-3,0 l0,5 l3,0 l0,15.00004 l5,0 l0,-15.00004 l6.8,0 l-9.99999,35.00004 z" inkscape:connector-curvature="0"/>
    <path sodipodi:nodetypes="czczczczc" inkscape:connector-curvature="0" id="path3204-24-55" d="m101.666748046875,52.00005841796883 c0,0 6,15 13,25 c7,10 17,20 17,20 c0,0 -10,10 -17,20 c-7,10 -13,25 -13,25 c0,0 -6,-15 -13,-25 c-7,-10 -17,-20 -17,-20 c0,0 10,-10 17,-20 c7,-10 13,-25 13,-25 " style="fill:#ff5555;stroke:none"/>
    <path sodipodi:nodetypes="czczczczc" inkscape:connector-curvature="0" id="path3204-24-1-32" d="m281.666748046875,52.00005841796883 c0,0 6,15 13,25 c7,10 17,20 17,20 c0,0 -10,10 -17,20 c-7,10 -13,25 -13,25 c0,0 -6,-15 -13,-25 c-7,-10 -17,-20 -17,-20 c0,0 10,-10 17,-20 c7,-10 13,-25 13,-25 " style="fill:#ff5555;stroke:none"/>
    <path sodipodi:nodetypes="czczczczc" inkscape:connector-curvature="0" id="path3204-24-7-8" d="m101.666748046875,412.00005841796883 c0,0 6,15 13,25 c7,10 17,20 17,20 c0,0 -10,10 -17,20 c-7,10 -13,25.00002 -13,25.00002 c0,0 -6,-15.00002 -13,-25.00002 c-7,-10 -17,-20 -17,-20 c0,0 10,-10 17,-20 c7,-10 13,-25 13,-25 " style="fill:#ff5555;stroke:none"/>
    <path sodipodi:nodetypes="czczczczc" inkscape:connector-curvature="0" id="path3204-24-4-25" d="m281.666748046875,412.00005841796883 c0,0 6,15 13,25 c7,10 17,20 17,20 c0,0 -10,10 -17,20 c-7,10 -13,25.00002 -13,25.00002 c0,0 -6,-15.00002 -13,-25.00002 c-7,-10 -17,-20 -17,-20 c0,0 10,-10 17,-20 c7,-10 13,-25 13,-25 " style="fill:#ff5555;stroke:none"/>
    <path sodipodi:nodetypes="czczczczc" inkscape:connector-curvature="0" id="path3204-24-1-0-3" d="m41.666748046875,97.00005841796883 c0,0 3,7.5 6.5,12.5 c3.5,5 8.5,10 8.5,10 c0,0 -5,5 -8.5,10 c-3.5,5 -6.5,12.5 -6.5,12.5 c0,0 -3,-7.5 -6.5,-12.5 c-3.5,-5 -8.5,-10 -8.5,-10 c0,0 5,-5 8.5,-10 c3.5,-5 6.5,-12.5 6.5,-12.5 " style="fill:#ff5555;stroke:none"/>
    <path sodipodi:nodetypes="czczczczc" inkscape:connector-curvature="0" id="path3204-24-1-9-6" d="m341.666748046875,412.00005841796883 c0,0 3,7.5 6.5,12.5 c3.5,5 8.5,10 8.5,10 c0,0 -5,5 -8.5,10 c-3.5,5 -6.5,12.5 -6.5,12.5 c0,0 -3,-7.5 -6.5,-12.5 c-3.5,-5 -8.5,-10 -8.5,-10 c0,0 5,-5 8.5,-10 c3.5,-5 6.5,-12.5 6.5,-12.5 " style="fill:#ff5555;stroke:none"/>
  </g></g></svg>