<svg xmlns:dc="http://purl.org/dc/elements/1.1/" xmlns:cc="http://creativecommons.org/ns#" xmlns:rdf="http://www.w3.org/1999/02/22-rdf-syntax-ns#" xmlns:svg="http://www.w3.org/2000/svg" xmlns="http://www.w3.org/2000/svg" xmlns:sodipodi="http://sodipodi.sourceforge.net/DTD/sodipodi-0.dtd" xmlns:inkscape="http://www.inkscape.org/namespaces/inkscape" version="1.1" width="377.1428527832031" height="551.4285888671875" inkscape:version="0.48.4 r9939" sodipodi:docname="Anglo-american_playing_cards_deck.0.02.svg" inkscape:export-filename="D:\Users\Дмитрий\Desktop\яяяяПрочее\cards\Anglo-american_playing_cards_deck.png" inkscape:export-xdpi="90" inkscape:export-ydpi="90"><rect id="backgroundrect" width="100%" height="100%" x="0" y="0" fill="none" stroke="none"/>
  <sodipodi:namedview pagecolor="#ffffff" bordercolor="#666666" borderopacity="1" objecttolerance="10" gridtolerance="10" guidetolerance="10" inkscape:pageopacity="0" inkscape:pageshadow="2" inkscape:window-width="1366" inkscape:window-height="741" id="namedview7377" showgrid="true" inkscape:zoom="0.22960784" inkscape:cx="2550" inkscape:cy="1155" inkscape:window-x="-9" inkscape:window-y="-9" inkscape:window-maximized="1" inkscape:current-layer="svg2">
    <inkscape:grid type="xygrid" id="grid10354" empspacing="5" visible="true" enabled="true" snapvisiblegridlinesonly="true" spacingx="390px" spacingy="570px" originy="30px" originx="30px"/>
  </sodipodi:namedview>
  <metadata id="metadata14752">
    <rdf:RDF>
      <cc:Work rdf:about="">
        <dc:format>image/svg+xml</dc:format>
        <dc:type rdf:resource="http://purl.org/dc/dcmitype/StillImage"/>
        <dc:title/>
      </cc:Work>
    </rdf:RDF>
  </metadata>
  <defs id="defs14750">
    <inkscape:path-effect effect="spiro" id="path-effect17935-9-8" is_visible="true"/>
    <inkscape:path-effect effect="spiro" id="path-effect17939-4-8" is_visible="true"/>
    <inkscape:path-effect effect="spiro" id="path-effect17935-9-8-6" is_visible="true"/>
    <inkscape:path-effect effect="spiro" id="path-effect17939-4-8-5" is_visible="true"/>
    <inkscape:path-effect effect="spiro" id="path-effect17935" is_visible="true"/>
    <inkscape:path-effect effect="spiro" id="path-effect17939" is_visible="true"/>
    <inkscape:path-effect effect="spiro" id="path-effect17935-8" is_visible="true"/>
    <inkscape:path-effect effect="spiro" id="path-effect17939-6" is_visible="true"/>
    <inkscape:path-effect effect="spiro" id="path-effect17935-9-8-2-5" is_visible="true"/>
    <inkscape:path-effect effect="spiro" id="path-effect17935-9-8-2-5-0" is_visible="true"/>
    <inkscape:path-effect effect="spiro" id="path-effect17935-9-8-2-5-09-4" is_visible="true"/>
    <inkscape:path-effect effect="spiro" id="path-effect17935-9-8-2-5-09-4-1" is_visible="true"/>
    <inkscape:path-effect effect="spiro" id="path-effect17935-9-8-2" is_visible="true"/>
    <inkscape:path-effect effect="spiro" id="path-effect17939-4-8-9" is_visible="true"/>
    <inkscape:path-effect effect="spiro" id="path-effect17935-9-8-6-0" is_visible="true"/>
    <inkscape:path-effect effect="spiro" id="path-effect17939-4-8-5-3" is_visible="true"/>
    <inkscape:path-effect effect="spiro" id="path-effect17935-9-8-2-5-08" is_visible="true"/>
    <inkscape:path-effect effect="spiro" id="path-effect17935-9-8-2-5-0-8" is_visible="true"/>
    <inkscape:path-effect effect="spiro" id="path-effect17935-9-8-2-5-09-4-0" is_visible="true"/>
    <inkscape:path-effect effect="spiro" id="path-effect17935-9-8-2-5-09-4-1-8" is_visible="true"/>
    <inkscape:path-effect effect="spiro" id="path-effect17935-89" is_visible="true"/>
    <inkscape:path-effect effect="spiro" id="path-effect17939-8" is_visible="true"/>
    <inkscape:path-effect effect="spiro" id="path-effect17935-8-7" is_visible="true"/>
    <inkscape:path-effect effect="spiro" id="path-effect17939-6-0" is_visible="true"/>
  </defs>
  
  
  
  
  
  
  
  
  
  
  
  
  
  
  
  
  
  
  
  
  
  
  
  
  
  
  
  
  
  
  
  
  
  
  
  
  
  
  
  
  
  
  
  
  
  
  
  
  
  
  
  
  
<g class="currentLayer" style=""><title>Layer 1</title><g id="g3079" class="selected">
    <rect rx="29.944446563720703" ry="29.944446563720703" y="5.8333740234375" x="8.8333740234375" height="539" width="359" id="rect6472-2" style="fill:#ffffff;stroke:#000000;stroke-width:0.99999976"/>
    <path style="fill:#000000;fill-opacity:1;stroke:none" id="rect3980-7-6-2-9-9-2" d="m38.3333740234375,35.33327140624999 l-10,35.00001 l0,4.99999 l12,0 l0,10 l5,0 l0,-10 l3,0 l0,-4.99999 l-3,0 l0,-14.99999 l-5,0 l0,14.99999 l-6.8,0 l9.99999,-35.00001 z" inkscape:connector-curvature="0"/>
    <path style="fill:#000000;fill-opacity:1;stroke:none" id="rect3980-7-6-2-9-9-8-2" d="m338.3333740234375,515.33339140625 l10,-35.00004 l0,-5 l-12,0 l0,-10 l-5,0 l0,10 l-3,0 l0,5 l3,0 l0,15.00004 l5,0 l0,-15.00004 l6.8,0 l-9.99999,35.00004 z" inkscape:connector-curvature="0"/>
    <path style="fill:#000000;fill-opacity:1;stroke:none" d="m40.8333740234375,123.33337140624997 c0.5,2 2.5,7 6,7 c4.5,0 6.5,-4 6.5,-9 c0,-3.5 -1.289475,-5.80614 -2.5,-8.5 c-1.28894,-2.86836 -3.18966,-5.4287 -5,-8 c-2.32265,-3.29895 -7.5,-9.5 -7.5,-9.5 c0,0 -5.17735,6.20105 -7.5,9.5 c-1.81034,2.5713 -3.71106,5.13164 -5,8 c-1.210525,2.69386 -2.5,5 -2.5,8.5 c0,5 2,9 6.5,9 c3.5,0 5.5,-5 6,-7 c0.5,-0.5 0.5,0 0.5,0.5 c-0.5,4 -0.5,5 -1,8 c-0.5,3 -2,8.5 -2,8.5 c2.5,-1 7.5,-1 10,0 c0,0 -1.5,-5.5 -2,-8.5 c-0.5,-3 -0.5,-4 -1,-8 c0,-0.5 0,-1 0.5,-0.5 z" id="path3037-7-4-7-6" inkscape:connector-curvature="0" sodipodi:nodetypes="cssaacaassccsccscc"/>
    <path style="fill:#000000;fill-opacity:1;stroke:none" d="m340.8333740234375,427.33337140624997 c0.5,-2 2.5,-7 6,-7 c4.5,0 6.5,4 6.5,9 c0,3.5 -1.2894700000000001,5.80614 -2.5,8.5 c-1.28894,2.86836 -3.18966,5.4287 -5,8 c-2.32265,3.29895 -7.5,9.5 -7.5,9.5 c0,0 -5.17735,-6.20105 -7.5,-9.5 c-1.81034,-2.5713 -3.71106,-5.13164 -5,-8 c-1.21053,-2.69386 -2.5,-5 -2.5,-8.5 c0,-5 2,-9 6.5,-9 c3.5,0 5.5,5 6,7 c0.5,0.5 0.5,0 0.5,-0.5 c-0.5,-4 -0.5,-5 -1,-8 c-0.5,-3 -2,-8.5 -2,-8.5 c2.5,1 7.5,1 10,0 c0,0 -1.5,5.5 -2,8.5 c-0.5,3 -0.5,4 -1,8 c0,0.5 0,1 0.5,0.5 z" id="path3037-7-4-4-4" inkscape:connector-curvature="0" sodipodi:nodetypes="cssaacaassccsccscc"/>
    <g id="g3027">
      <path inkscape:connector-curvature="0" style="fill:#000000;fill-opacity:1;fill-rule:nonzero;stroke:none" d="m103.34124702343752,106.31762602343747 c0.992126,4.003937 4.9960629999999995,14.031496 11.976378,14.031496 c9,0 13.003937,-8.007874 13.003937,-18 C128.32156202343754,95.3333740234375 125.77038002343761,90.72707502343746 123.32549902343749,85.34124802343752 C120.73888502343743,79.60109102343745 116.94754602343755,74.46329502343747 113.33337302343762,69.32550002343748 C108.69164102343757,62.73494902343748 98.34518402343747,50.3333740234375 98.34518402343747,50.3333740234375 c0,0 -10.381889,12.401575 -15.023621,18.992126 C79.7073890234376,74.46329502343747 75.9160510234376,79.60109102343745 73.32943692343747,85.34124802343752 C70.9199881234374,90.72707502343746 68.3333740234375,95.3333740234375 68.3333740234375,102.34912202343753 c0,9.992126 4.0039369,18 13.003937,18 c6.980314,0 10.984251,-10.027559 12.01181,-14.031496 c0.992126,-0.992126 0.992126,0 0.992126,1.0275590000000001 c-0.992126,7.972441 -0.992126,9.992126 -2.019685,15.980315 C91.32943602343744,129.34912202343753 88.31762502343759,140.3333740234375 88.31762502343759,140.3333740234375 c5.031496,-1.984252 15.023622,-1.984252 20.019685,0 c0,0 -3.011811,-10.984252 -4.003937,-17.007874 c-0.992126,-5.988189 -0.992126,-8.007874 -1.984252,-15.980315 c0,-1.0275590000000001 0,-2.019685 0.992126,-1.0275590000000001 z" id="path3029"/>
    </g>
    <g id="g3041">
      <path inkscape:connector-curvature="0" style="fill:#000000;fill-opacity:1;fill-rule:nonzero;stroke:none" d="m283.3412470234375,106.31762602343747 c0.992126,4.003937 4.9960629999999995,14.031496 11.976378,14.031496 c9,0 13.003937,-8.007874 13.003937,-18 C308.32156202343754,95.3333740234375 305.7703800234376,90.72707502343746 303.3254990234375,85.34124802343752 C300.73888502343743,79.60109102343745 296.94754602343755,74.46329502343747 293.3333730234376,69.32550002343748 C288.69164102343757,62.73494902343748 278.34518402343747,50.3333740234375 278.34518402343747,50.3333740234375 c0,0 -10.381889,12.401575 -15.023621,18.992126 C259.7073890234376,74.46329502343747 255.9160510234376,79.60109102343745 253.32943692343747,85.34124802343752 C250.9199881234374,90.72707502343746 248.3333740234375,95.3333740234375 248.3333740234375,102.34912202343753 c0,9.992126 4.0039369,18 13.003937,18 c6.980314,0 10.984251,-10.027559 12.01181,-14.031496 c0.992126,-0.992126 0.992126,0 0.992126,1.0275590000000001 c-0.992126,7.972441 -0.992126,9.992126 -2.019685,15.980315 C271.32943602343744,129.34912202343753 268.3176250234376,140.3333740234375 268.3176250234376,140.3333740234375 c5.031496,-1.984252 15.023622,-1.984252 20.019685,0 c0,0 -3.011811,-10.984252 -4.003937,-17.007874 c-0.992126,-5.988189 -0.992126,-8.007874 -1.984252,-15.980315 c0,-1.0275590000000001 0,-2.019685 0.992126,-1.0275590000000001 z" id="path3043"/>
    </g>
    <g id="g3055">
      <path inkscape:connector-curvature="0" style="fill:#000000;fill-opacity:1;fill-rule:nonzero;stroke:none" d="m103.34124702343752,444.34913940625006 c0.992126,-4.003937 4.9960629999999995,-14.031496 11.976378,-14.031496 c9,0 13.003937,8.007874 13.003937,18 C128.32156202343754,455.33339140625003 125.77038002343761,459.93969040625007 123.32549902343749,465.3255174062501 C120.73888502343743,471.0656744062501 116.94754602343755,476.20347040625006 113.33337302343762,481.34126540624993 C108.69164102343757,487.93181640625016 98.34518402343747,500.33339140625003 98.34518402343747,500.33339140625003 c0,0 -10.381889,-12.401575 -15.023621,-18.992126 C79.7073890234376,476.20347040625006 75.9160510234376,471.0656744062501 73.32943692343747,465.3255174062501 C70.9199881234374,459.93969040625007 68.3333740234375,455.33339140625003 68.3333740234375,448.31764340625 c0,-9.992126 4.0039369,-18 13.003937,-18 c6.980314,0 10.984251,10.027559 12.01181,14.031496 c0.992126,0.992126 0.992126,0 0.992126,-1.0275590000000001 c-0.992126,-7.972441 -0.992126,-9.992126 -2.019685,-15.980315 C91.32943602343744,421.31764340625 88.31762502343759,410.33339140625003 88.31762502343759,410.33339140625003 c5.031496,1.984252 15.023622,1.984252 20.019685,0 c0,0 -3.011811,10.984252 -4.003937,17.007874 c-0.992126,5.988189 -0.992126,8.007874 -1.984252,15.980315 c0,1.0275590000000001 0,2.019685 0.992126,1.0275590000000001 z" id="path3057" stroke-width="0"/>
    </g>
    <g id="g3069">
      <path inkscape:connector-curvature="0" style="fill:#000000;fill-opacity:1;fill-rule:nonzero;stroke:none" d="m283.3412470234375,444.34913940625006 c0.992126,-4.003937 4.9960629999999995,-14.031496 11.976378,-14.031496 c9,0 13.003937,8.007874 13.003937,18 C308.32156202343754,455.33339140625003 305.7703800234376,459.93969040625007 303.3254990234375,465.3255174062501 C300.73888502343743,471.0656744062501 296.94754602343755,476.20347040625006 293.3333730234376,481.34126540624993 C288.69164102343757,487.93181640625016 278.34518402343747,500.33339140625003 278.34518402343747,500.33339140625003 c0,0 -10.381889,-12.401575 -15.023621,-18.992126 C259.7073890234376,476.20347040625006 255.9160510234376,471.0656744062501 253.32943692343747,465.3255174062501 C250.9199881234374,459.93969040625007 248.3333740234375,455.33339140625003 248.3333740234375,448.31764340625 c0,-9.992126 4.0039369,-18 13.003937,-18 c6.980314,0 10.984251,10.027559 12.01181,14.031496 c0.992126,0.992126 0.992126,0 0.992126,-1.0275590000000001 c-0.992126,-7.972441 -0.992126,-9.992126 -2.019685,-15.980315 C271.32943602343744,421.31764340625 268.3176250234376,410.33339140625003 268.3176250234376,410.33339140625003 c5.031496,1.984252 15.023622,1.984252 20.019685,0 c0,0 -3.011811,10.984252 -4.003937,17.007874 c-0.992126,5.988189 -0.992126,8.007874 -1.984252,15.980315 c0,1.0275590000000001 0,2.019685 0.992126,1.0275590000000001 z" id="path3071" stroke-width="0"/>
    </g>
  </g></g></svg>