<svg xmlns:dc="http://purl.org/dc/elements/1.1/" xmlns:cc="http://creativecommons.org/ns#" xmlns:rdf="http://www.w3.org/1999/02/22-rdf-syntax-ns#" xmlns:svg="http://www.w3.org/2000/svg" xmlns="http://www.w3.org/2000/svg" xmlns:sodipodi="http://sodipodi.sourceforge.net/DTD/sodipodi-0.dtd" xmlns:inkscape="http://www.inkscape.org/namespaces/inkscape" version="1.1" width="377.1428527832031" height="551.4285888671875" inkscape:version="0.48.4 r9939" sodipodi:docname="Anglo-american_playing_cards_deck.0.02.svg" inkscape:export-filename="D:\Users\Дмитрий\Desktop\яяяяПрочее\cards\Anglo-american_playing_cards_deck.png" inkscape:export-xdpi="90" inkscape:export-ydpi="90"><rect id="backgroundrect" width="100%" height="100%" x="0" y="0" fill="none" stroke="none"/>
  <sodipodi:namedview pagecolor="#ffffff" bordercolor="#666666" borderopacity="1" objecttolerance="10" gridtolerance="10" guidetolerance="10" inkscape:pageopacity="0" inkscape:pageshadow="2" inkscape:window-width="1366" inkscape:window-height="741" id="namedview7377" showgrid="true" inkscape:zoom="0.22960784" inkscape:cx="2550" inkscape:cy="1155" inkscape:window-x="-9" inkscape:window-y="-9" inkscape:window-maximized="1" inkscape:current-layer="svg2">
    <inkscape:grid type="xygrid" id="grid10354" empspacing="5" visible="true" enabled="true" snapvisiblegridlinesonly="true" spacingx="390px" spacingy="570px" originy="30px" originx="30px"/>
  </sodipodi:namedview>
  <metadata id="metadata14752">
    <rdf:RDF>
      <cc:Work rdf:about="">
        <dc:format>image/svg+xml</dc:format>
        <dc:type rdf:resource="http://purl.org/dc/dcmitype/StillImage"/>
        <dc:title/>
      </cc:Work>
    </rdf:RDF>
  </metadata>
  <defs id="defs14750">
    <inkscape:path-effect effect="spiro" id="path-effect17935-9-8" is_visible="true"/>
    <inkscape:path-effect effect="spiro" id="path-effect17939-4-8" is_visible="true"/>
    <inkscape:path-effect effect="spiro" id="path-effect17935-9-8-6" is_visible="true"/>
    <inkscape:path-effect effect="spiro" id="path-effect17939-4-8-5" is_visible="true"/>
    <inkscape:path-effect effect="spiro" id="path-effect17935" is_visible="true"/>
    <inkscape:path-effect effect="spiro" id="path-effect17939" is_visible="true"/>
    <inkscape:path-effect effect="spiro" id="path-effect17935-8" is_visible="true"/>
    <inkscape:path-effect effect="spiro" id="path-effect17939-6" is_visible="true"/>
    <inkscape:path-effect effect="spiro" id="path-effect17935-9-8-2-5" is_visible="true"/>
    <inkscape:path-effect effect="spiro" id="path-effect17935-9-8-2-5-0" is_visible="true"/>
    <inkscape:path-effect effect="spiro" id="path-effect17935-9-8-2-5-09-4" is_visible="true"/>
    <inkscape:path-effect effect="spiro" id="path-effect17935-9-8-2-5-09-4-1" is_visible="true"/>
    <inkscape:path-effect effect="spiro" id="path-effect17935-9-8-2" is_visible="true"/>
    <inkscape:path-effect effect="spiro" id="path-effect17939-4-8-9" is_visible="true"/>
    <inkscape:path-effect effect="spiro" id="path-effect17935-9-8-6-0" is_visible="true"/>
    <inkscape:path-effect effect="spiro" id="path-effect17939-4-8-5-3" is_visible="true"/>
    <inkscape:path-effect effect="spiro" id="path-effect17935-9-8-2-5-08" is_visible="true"/>
    <inkscape:path-effect effect="spiro" id="path-effect17935-9-8-2-5-0-8" is_visible="true"/>
    <inkscape:path-effect effect="spiro" id="path-effect17935-9-8-2-5-09-4-0" is_visible="true"/>
    <inkscape:path-effect effect="spiro" id="path-effect17935-9-8-2-5-09-4-1-8" is_visible="true"/>
    <inkscape:path-effect effect="spiro" id="path-effect17935-89" is_visible="true"/>
    <inkscape:path-effect effect="spiro" id="path-effect17939-8" is_visible="true"/>
    <inkscape:path-effect effect="spiro" id="path-effect17935-8-7" is_visible="true"/>
    <inkscape:path-effect effect="spiro" id="path-effect17939-6-0" is_visible="true"/>
  </defs>
  
  
  
  
  
  
  
  
  
  
  
  
  
  
  
  
  
  
  
  
  
  
  
  
  
  
  
  
  
  
  
  
  
  
  
  
  
  
  
  
  
  
  
  
  
  
  
  
  
  
  
  
  
<g class="currentLayer" style=""><title>Layer 1</title><g id="g3053" class="">
    <rect rx="29.944446563720703" ry="29.944446563720703" y="5.8333740234375" x="10.500040531158447" height="539" width="359" id="rect6472-58" style="fill:#ffffff;stroke:#000000;stroke-width:0.99999976"/>
    <path sodipodi:nodetypes="csccsscssccscc" inkscape:connector-curvature="0" id="path3126-1-6" d="m189.00004053115845,250.33337140625008 c0,-11.04569 -5.71573,-20 -14,-20 c-8.28427,0 -15,8.95431 -15,20 c0.03490000000000003,0.95559 0.0182,1.8911900000000008 0,2.8125 c0,7.29848 2.67685,14.37684 5,21 c2.38903,6.81096 5.83357,12.78067 9.0625,18.875 c5.00123,9.439400000000001 15.9375,27.3125 15.9375,27.3125 c0,0 10.93627,-17.8731 15.9375,-27.3125 c3.22893,-6.09433 6.67347,-12.06404 9.0625,-18.875 c2.32315,-6.62316 5,-13.70152 5,-21 c-0.028400000000000022,-0.9743999999999996 -0.018600000000000005,-1.9146200000000002 0,-2.8125 c0,-11.04569 -6.71573,-20 -15,-20 c-8.28427,0 -14,8.95431 -14,20 z" style="fill:#ff5555;fill-opacity:1;stroke:none"/>
    <path style="fill:#ff5555;fill-opacity:1;stroke:none" id="rect3163-6-0-0-2" d="m30.000040531158447,35.33327140624988 l0,14.99999 l0,5 l10,0 c2.77,0 5.00001,2.23 5.00001,5.00005 l0,14.99996 c0,2.77001 -2.23001,5.00001 -5.00001,5.00001 c-2.77,0 -5,-2.23 -5,-5.00001 l0,-4.99999 l-5,0 l0,4.99999 c0,5.54 4.46,10 10,10 c5.54001,0 10,-4.46 10,-10 l0,-14.99996 c0,-5.54005 -4.45999,-10.00005 -10,-10.00005 l-5,0 l0,-9.99998 l5,0 l10,0 l0,-5.00001 l-10,0 l-5,0 z" inkscape:connector-curvature="0"/>
    <path style="fill:#ff5555;fill-opacity:1;stroke:none" id="rect3163-6-0-0-2-4" d="m350.00004053115845,515.33339140625 l0,-15 l0,-5 l-10,0 c-2.77,0 -5.00001,-2.23 -5.00001,-5.00006 l0,-15.00002 c0,-2.77 2.23001,-5 5.00001,-5 c2.77,0 5,2.23 5,5 l0,5 l5,0 l0,-5 c0,-5.54 -4.46,-10 -10,-10 c-5.54001,0 -10,4.46 -10,10 l0,15.00002 c0,5.54006 4.45999,10.00006 10,10.00006 l5,0 l0,10 l-5,0 l-10,0 l0,5 l10,0 l5,0 z" inkscape:connector-curvature="0"/>
    <path style="fill:#ff5555;fill-opacity:1;stroke:none" d="m99.00004053115845,68.33337140625008 c0,-11.04569 -5.71573,-18 -14,-18 c-8.28427,0 -15,8.95431 -15,20 c0.03490000000000003,0.95559 0.0182,1.8911900000000008 0,2.8125 c0,7.29848 2.67685,14.37684 5,21 c2.38903,6.81096 5.83357,12.78067 9.0625,18.875 c5.00123,9.439400000000001 15.9375,27.3125 15.9375,27.3125 c0,0 10.93627,-17.8731 15.9375,-27.3125 c3.22893,-6.09433 6.67347,-12.06404 9.0625,-18.875 c2.32315,-6.62316 5,-13.70152 5,-21 c-0.028400000000000022,-0.9743999999999996 -0.018600000000000005,-1.9146200000000002 0,-2.8125 c0,-11.04569 -6.71573,-20 -15,-20 c-8.28427,0 -14,6.9543099999999995 -14,18 c0,2 -2,2 -2,0 z" id="path3126-2" inkscape:connector-curvature="0" sodipodi:nodetypes="csccsscssccscc"/>
    <path style="fill:#ff5555;fill-opacity:1;stroke:none" d="m279.00004053115845,68.33337140625008 c0,-11.04569 -5.71573,-18 -14,-18 c-8.28427,0 -15,8.95431 -15,20 c0.03490000000000003,0.95559 0.0182,1.8911900000000008 0,2.8125 c0,7.29848 2.67685,14.37684 5,21 c2.38903,6.81096 5.83357,12.78067 9.0625,18.875 c5.00123,9.439400000000001 15.9375,27.3125 15.9375,27.3125 c0,0 10.93627,-17.8731 15.9375,-27.3125 c3.22893,-6.09433 6.67347,-12.06404 9.0625,-18.875 c2.32315,-6.62316 5,-13.70152 5,-21 c-0.028400000000000022,-0.9743999999999996 -0.018600000000000005,-1.9146200000000002 0,-2.8125 c0,-11.04569 -6.71573,-20 -15,-20 c-8.28427,0 -14,6.9543099999999995 -14,18 c0,2 -2,2 -2,0 z" id="path3126-17-6" inkscape:connector-curvature="0" sodipodi:nodetypes="csccsscssccscc"/>
    <path style="fill:#ff5555;fill-opacity:1;stroke:none" d="m189.00004053115845,248.33337140625008 c0,-11.04569 -5.71573,-18 -14,-18 c-8.28427,0 -15,8.95431 -15,20 c0.03490000000000003,0.95559 0.0182,1.8911900000000008 0,2.8125 c0,7.29848 2.67685,14.37684 5,21 c2.38903,6.81096 5.83357,12.78067 9.0625,18.875 c5.00123,9.439400000000001 15.9375,27.3125 15.9375,27.3125 c0,0 10.93627,-17.8731 15.9375,-27.3125 c3.22893,-6.09433 6.67347,-12.06404 9.0625,-18.875 c2.32315,-6.62316 5,-13.70152 5,-21 c-0.028400000000000022,-0.9743999999999996 -0.018600000000000005,-1.9146200000000002 0,-2.8125 c0,-11.04569 -6.71573,-20 -15,-20 c-8.28427,0 -14,6.9543099999999995 -14,18 c0,2 -2,2 -2,0 z" id="path3126-4-5" inkscape:connector-curvature="0" sodipodi:nodetypes="csccsscssccscc"/>
    <path style="fill:#ff5555;fill-opacity:1;stroke:none" d="m99.00004053115845,482.33339140625003 c0,11.0457 -5.71573,18 -14,18 c-8.28427,0 -15,-8.95431 -15,-20 c0.03490000000000003,-0.95559 0.0182,-1.8911900000000008 0,-2.8125 c0,-7.29848 2.67685,-14.37684 5,-21 c2.38903,-6.81096 5.83357,-12.78067 9.0625,-18.875 C89.06377053115853,428.20649140625005 100.00004053115845,410.3333714062501 100.00004053115845,410.3333714062501 c0,0 10.93627,17.87312 15.9375,27.31252 c3.22893,6.09433 6.67347,12.06404 9.0625,18.875 c2.32315,6.62316 5,13.70152 5,21 c-0.028400000000000022,0.9743999999999996 -0.018600000000000005,1.9146200000000002 0,2.8125 c0,11.04569 -6.71573,20 -15,20 c-8.28427,0 -14,-6.9543 -14,-18 c0,-2 -2,-2 -2,0 z" id="path3126-0-3" inkscape:connector-curvature="0" sodipodi:nodetypes="csccsscssccscc"/>
    <path style="fill:#ff5555;fill-opacity:1;stroke:none" d="m279.00004053115845,482.33339140625003 c0,11.0457 -5.71573,18 -14,18 c-8.28427,0 -15,-8.95431 -15,-20 c0.03490000000000003,-0.95559 0.0182,-1.8911900000000008 0,-2.8125 c0,-7.29848 2.67685,-14.37684 5,-21 c2.38903,-6.81096 5.83357,-12.78067 9.0625,-18.875 C269.0637705311585,428.20649140625005 280.00004053115845,410.3333714062501 280.00004053115845,410.3333714062501 c0,0 10.93627,17.87312 15.9375,27.31252 c3.22893,6.09433 6.67347,12.06404 9.0625,18.875 c2.32315,6.62316 5,13.70152 5,21 c-0.028400000000000022,0.9743999999999996 -0.018600000000000005,1.9146200000000002 0,2.8125 c0,11.04569 -6.71573,20 -15,20 c-8.28427,0 -14,-6.9543 -14,-18 c0,-2 -2,-2 -2,0 z" id="path3126-9-92" inkscape:connector-curvature="0" sodipodi:nodetypes="csccsscssccscc"/>
    <path style="fill:#ff5555;fill-opacity:1;stroke:none" d="m39.50004053115845,104.33337140625008 c0,-5.52285 -2.8578650000000003,-9 -7,-9 c-4.142135,0 -7.5,4.47715 -7.5,10 c0.017450000000000028,0.4778000000000002 0.009100000000000007,0.94559 0,1.40625 c0,3.6492400000000007 1.338425,7.18842 2.5,10.5 c1.194515,3.40548 2.916785,6.39034 4.53125,9.4375 c2.500615,4.7197000000000005 7.96875,13.65625 7.96875,13.65625 c0,0 5.468135,-8.93655 7.96875,-13.65625 c1.614465,-3.04716 3.336735,-6.03202 4.53125,-9.4375 c1.161575,-3.31158 2.5,-6.85076 2.5,-10.5 c-0.014200000000000011,-0.4872 -0.009300000000000011,-0.95731 0,-1.40625 c0,-5.52285 -3.357865,-10 -7.5,-10 c-4.142135,0 -7,3.47715 -7,9 c0,1 -1,1 -1,0 z" id="path3126-1-4-4" inkscape:connector-curvature="0" sodipodi:nodetypes="csccsscssccscc"/>
    <path style="fill:#ff5555;fill-opacity:1;stroke:none" d="m339.50004053115845,446.3333714062501 c0,5.52285 -2.85787,9 -7,9 c-4.14214,0 -7.5,-4.47715 -7.5,-10 c0.017400000000000027,-0.4778000000000002 0.009000000000000011,-0.94559 0,-1.40625 c0,-3.6492400000000007 1.3384200000000006,-7.18842 2.5,-10.5 c1.19452,-3.40548 2.91678,-6.39034 4.53125,-9.4375 c2.50061,-4.7197000000000005 7.96875,-13.65625 7.96875,-13.65625 c0,0 5.46814,8.93655 7.96875,13.65625 c1.61446,3.04716 3.33673,6.03202 4.53125,9.4375 c1.16157,3.31158 2.5,6.85076 2.5,10.5 c-0.014200000000000011,0.4872 -0.009000000000000011,0.95731 0,1.40625 c0,5.52285 -3.35787,10 -7.5,10 c-4.14214,0 -7,-3.47715 -7,-9 c0,-1 -1,-1 -1,0 z" id="path3126-1-8" inkscape:connector-curvature="0" sodipodi:nodetypes="csccsscssccscc"/>
  </g></g></svg>