<svg xmlns:dc="http://purl.org/dc/elements/1.1/" xmlns:cc="http://creativecommons.org/ns#" xmlns:rdf="http://www.w3.org/1999/02/22-rdf-syntax-ns#" xmlns:svg="http://www.w3.org/2000/svg" xmlns="http://www.w3.org/2000/svg" xmlns:sodipodi="http://sodipodi.sourceforge.net/DTD/sodipodi-0.dtd" xmlns:inkscape="http://www.inkscape.org/namespaces/inkscape" version="1.1" width="377.1428527832031" height="551.4285888671875" inkscape:version="0.48.4 r9939" sodipodi:docname="Anglo-american_playing_cards_deck.0.02.svg" inkscape:export-filename="D:\Users\Дмитрий\Desktop\яяяяПрочее\cards\Anglo-american_playing_cards_deck.png" inkscape:export-xdpi="90" inkscape:export-ydpi="90"><rect id="backgroundrect" width="100%" height="100%" x="0" y="0" fill="none" stroke="none"/>
  <sodipodi:namedview pagecolor="#ffffff" bordercolor="#666666" borderopacity="1" objecttolerance="10" gridtolerance="10" guidetolerance="10" inkscape:pageopacity="0" inkscape:pageshadow="2" inkscape:window-width="1366" inkscape:window-height="741" id="namedview7377" showgrid="true" inkscape:zoom="0.22960784" inkscape:cx="2550" inkscape:cy="1155" inkscape:window-x="-9" inkscape:window-y="-9" inkscape:window-maximized="1" inkscape:current-layer="svg2">
    <inkscape:grid type="xygrid" id="grid10354" empspacing="5" visible="true" enabled="true" snapvisiblegridlinesonly="true" spacingx="390px" spacingy="570px" originy="30px" originx="30px"/>
  </sodipodi:namedview>
  <metadata id="metadata14752">
    <rdf:RDF>
      <cc:Work rdf:about="">
        <dc:format>image/svg+xml</dc:format>
        <dc:type rdf:resource="http://purl.org/dc/dcmitype/StillImage"/>
        <dc:title/>
      </cc:Work>
    </rdf:RDF>
  </metadata>
  <defs id="defs14750">
    <inkscape:path-effect effect="spiro" id="path-effect17935-9-8" is_visible="true"/>
    <inkscape:path-effect effect="spiro" id="path-effect17939-4-8" is_visible="true"/>
    <inkscape:path-effect effect="spiro" id="path-effect17935-9-8-6" is_visible="true"/>
    <inkscape:path-effect effect="spiro" id="path-effect17939-4-8-5" is_visible="true"/>
    <inkscape:path-effect effect="spiro" id="path-effect17935" is_visible="true"/>
    <inkscape:path-effect effect="spiro" id="path-effect17939" is_visible="true"/>
    <inkscape:path-effect effect="spiro" id="path-effect17935-8" is_visible="true"/>
    <inkscape:path-effect effect="spiro" id="path-effect17939-6" is_visible="true"/>
    <inkscape:path-effect effect="spiro" id="path-effect17935-9-8-2-5" is_visible="true"/>
    <inkscape:path-effect effect="spiro" id="path-effect17935-9-8-2-5-0" is_visible="true"/>
    <inkscape:path-effect effect="spiro" id="path-effect17935-9-8-2-5-09-4" is_visible="true"/>
    <inkscape:path-effect effect="spiro" id="path-effect17935-9-8-2-5-09-4-1" is_visible="true"/>
    <inkscape:path-effect effect="spiro" id="path-effect17935-9-8-2" is_visible="true"/>
    <inkscape:path-effect effect="spiro" id="path-effect17939-4-8-9" is_visible="true"/>
    <inkscape:path-effect effect="spiro" id="path-effect17935-9-8-6-0" is_visible="true"/>
    <inkscape:path-effect effect="spiro" id="path-effect17939-4-8-5-3" is_visible="true"/>
    <inkscape:path-effect effect="spiro" id="path-effect17935-9-8-2-5-08" is_visible="true"/>
    <inkscape:path-effect effect="spiro" id="path-effect17935-9-8-2-5-0-8" is_visible="true"/>
    <inkscape:path-effect effect="spiro" id="path-effect17935-9-8-2-5-09-4-0" is_visible="true"/>
    <inkscape:path-effect effect="spiro" id="path-effect17935-9-8-2-5-09-4-1-8" is_visible="true"/>
    <inkscape:path-effect effect="spiro" id="path-effect17935-89" is_visible="true"/>
    <inkscape:path-effect effect="spiro" id="path-effect17939-8" is_visible="true"/>
    <inkscape:path-effect effect="spiro" id="path-effect17935-8-7" is_visible="true"/>
    <inkscape:path-effect effect="spiro" id="path-effect17939-6-0" is_visible="true"/>
  </defs>
  
  
  
  
  
  
  
  
  
  
  
  
  
  
  
  
  
  
  
  
  
  
  
  
  
  
  
  
  
  
  
  
  
  
  
  
  
  
  
  
  
  
  
  
  
  
  
  
  
  
  
  
  
<g class="currentLayer" style=""><title>Layer 1</title><g id="g3088" class="selected">
    <rect rx="29.944446563720703" ry="29.944446563720703" y="2.5" x="10.5001220703125" height="539" width="359" id="rect6472-8" style="fill:#ffffff;stroke:#000000;stroke-width:0.99999976"/>
    <path style="fill:#000000;fill-opacity:1;stroke:none" id="rect3163-6-0-0-2-6" d="m30.0001220703125,31.99989738281249 l0,14.99999 l0,5 l10,0 c2.77,0 5.00001,2.23 5.00001,5.00005 l0,14.99996 c0,2.77001 -2.23001,5.00001 -5.00001,5.00001 c-2.77,0 -5,-2.23 -5,-5.00001 l0,-4.99999 l-5,0 l0,4.99999 c0,5.54 4.46,10 10,10 c5.54001,0 10,-4.46 10,-10 l0,-14.99996 c0,-5.54005 -4.45999,-10.00005 -10,-10.00005 l-5,0 l0,-9.99998 l5,0 l10,0 l0,-5.00001 l-10,0 l-5,0 z" inkscape:connector-curvature="0"/>
    <path style="fill:#000000;fill-opacity:1;stroke:none" id="rect3163-6-0-0-2-4-7" d="m350.0001220703125,512.0000173828125 l0,-15 l0,-5 l-10,0 c-2.77,0 -5.00001,-2.23 -5.00001,-5.00006 l0,-15.00002 c0,-2.77 2.23001,-5 5.00001,-5 c2.77,0 5,2.23 5,5 l0,5 l5,0 l0,-5 c0,-5.54 -4.46,-10 -10,-10 c-5.54001,0 -10,4.46 -10,10 l0,15.00002 c0,5.54006 4.45999,10.00006 10,10.00006 l5,0 l0,10 l-5,0 l-10,0 l0,5 l10,0 l5,0 z" inkscape:connector-curvature="0"/>
    <g id="g3008">
      <path inkscape:connector-curvature="0" style="fill:#000000;fill-opacity:1;fill-rule:nonzero;stroke:none" d="m105.00799507031252,102.98425199999997 c0.992126,4.003937 4.9960629999999995,14.031496 11.976378,14.031496 c9,0 13.003937,-8.007874 13.003937,-18 C129.98831007031254,92 127.43712807031261,87.39370099999996 124.99224707031249,82.00787400000002 C122.40563307031243,76.26771699999995 118.61429407031255,71.12992099999997 115.00012107031262,65.99212599999998 C110.35838907031257,59.40157499999998 100.01193207031247,47 100.01193207031247,47 c0,0 -10.381889,12.401575 -15.023621,18.992126 C81.3741370703126,71.12992099999997 77.5827990703126,76.26771699999995 74.99618497031247,82.00787400000002 C72.5867361703124,87.39370099999996 70.0001220703125,92 70.0001220703125,99.01574800000003 c0,9.992126 4.0039369,18 13.003937,18 c6.980314,0 10.984251,-10.027559 12.01181,-14.031496 c0.992126,-0.992126 0.992126,0 0.992126,1.0275590000000001 c-0.992126,7.972441 -0.992126,9.992126 -2.019685,15.980315 C92.99618407031244,126.01574800000003 89.98437307031259,137 89.98437307031259,137 c5.031496,-1.984252 15.023622,-1.984252 20.019685,0 c0,0 -3.011811,-10.984252 -4.003937,-17.007874 c-0.992126,-5.988189 -0.992126,-8.007874 -1.984252,-15.980315 c0,-1.0275590000000001 0,-2.019685 0.992126,-1.0275590000000001 z" id="path3010"/>
    </g>
    <g id="g3022">
      <path inkscape:connector-curvature="0" style="fill:#000000;fill-opacity:1;fill-rule:nonzero;stroke:none" d="m285.0079950703125,102.98425199999997 c0.992126,4.003937 4.9960629999999995,14.031496 11.976378,14.031496 c9,0 13.003937,-8.007874 13.003937,-18 C309.98831007031254,92 307.4371280703126,87.39370099999996 304.9922470703125,82.00787400000002 C302.40563307031243,76.26771699999995 298.61429407031255,71.12992099999997 295.0001210703126,65.99212599999998 C290.35838907031257,59.40157499999998 280.01193207031247,47 280.01193207031247,47 c0,0 -10.381889,12.401575 -15.023621,18.992126 C261.3741370703126,71.12992099999997 257.5827990703126,76.26771699999995 254.99618497031247,82.00787400000002 C252.5867361703124,87.39370099999996 250.0001220703125,92 250.0001220703125,99.01574800000003 c0,9.992126 4.0039369,18 13.003937,18 c6.980314,0 10.984251,-10.027559 12.01181,-14.031496 c0.992126,-0.992126 0.992126,0 0.992126,1.0275590000000001 c-0.992126,7.972441 -0.992126,9.992126 -2.019685,15.980315 C272.99618407031244,126.01574800000003 269.9843730703126,137 269.9843730703126,137 c5.031496,-1.984252 15.023622,-1.984252 20.019685,0 c0,0 -3.011811,-10.984252 -4.003937,-17.007874 c-0.992126,-5.988189 -0.992126,-8.007874 -1.984252,-15.980315 c0,-1.0275590000000001 0,-2.019685 0.992126,-1.0275590000000001 z" id="path3024"/>
    </g>
    <g id="g3036">
      <path inkscape:connector-curvature="0" style="fill:#000000;fill-opacity:1;fill-rule:nonzero;stroke:none" d="m195.00799507031252,282.98425199999997 c0.992126,4.003937 4.9960629999999995,14.031496 11.976378,14.031496 c9,0 13.003937,-8.007874 13.003937,-18 C219.98831007031254,272 217.4371280703126,267.39370099999996 214.9922470703125,262.007874 C212.40563307031243,256.26771699999995 208.61429407031255,251.12992099999997 205.00012107031262,245.99212599999998 C200.35838907031257,239.40157499999998 190.01193207031247,227 190.01193207031247,227 c0,0 -10.381889,12.401575 -15.023621,18.992126 C171.3741370703126,251.12992099999997 167.5827990703126,256.26771699999995 164.99618497031247,262.007874 C162.5867361703124,267.39370099999996 160.0001220703125,272 160.0001220703125,279.01574800000003 c0,9.992126 4.0039369,18 13.003937,18 c6.980314,0 10.984251,-10.027559 12.01181,-14.031496 c0.992126,-0.992126 0.992126,0 0.992126,1.0275590000000001 c-0.992126,7.972441 -0.992126,9.992126 -2.019685,15.980315 C182.99618407031244,306.01574800000003 179.98437307031259,317 179.98437307031259,317 c5.031496,-1.984252 15.023622,-1.984252 20.019685,0 c0,0 -3.011811,-10.984252 -4.003937,-17.007874 c-0.992126,-5.988189 -0.992126,-8.007874 -1.984252,-15.980315 c0,-1.0275590000000001 0,-2.019685 0.992126,-1.0275590000000001 z" id="path3038"/>
    </g>
    <g id="g3050">
      <path inkscape:connector-curvature="0" style="fill:#000000;fill-opacity:1;fill-rule:nonzero;stroke:none" d="m105.00799507031252,441.01576538281256 c0.992126,-4.003937 4.9960629999999995,-14.031496 11.976378,-14.031496 c9,0 13.003937,8.007874 13.003937,18 C129.98831007031254,452.00001738281253 127.43712807031261,456.60631638281257 124.99224707031249,461.9921433828126 C122.40563307031243,467.7323003828126 118.61429407031255,472.87009638281256 115.00012107031262,478.00789138281243 C110.35838907031257,484.59844238281266 100.01193207031247,497.00001738281253 100.01193207031247,497.00001738281253 c0,0 -10.381889,-12.401575 -15.023621,-18.992126 C81.3741370703126,472.87009638281256 77.5827990703126,467.7323003828126 74.99618497031247,461.9921433828126 C72.5867361703124,456.60631638281257 70.0001220703125,452.00001738281253 70.0001220703125,444.9842693828125 c0,-9.992126 4.0039369,-18 13.003937,-18 c6.980314,0 10.984251,10.027559 12.01181,14.031496 c0.992126,0.992126 0.992126,0 0.992126,-1.0275590000000001 c-0.992126,-7.972441 -0.992126,-9.992126 -2.019685,-15.980315 C92.99618407031244,417.9842693828125 89.98437307031259,407.00001738281253 89.98437307031259,407.00001738281253 c5.031496,1.984252 15.023622,1.984252 20.019685,0 c0,0 -3.011811,10.984252 -4.003937,17.007874 c-0.992126,5.988189 -0.992126,8.007874 -1.984252,15.980315 c0,1.0275590000000001 0,2.019685 0.992126,1.0275590000000001 z" id="path3052" stroke-width="0"/>
    </g>
    <g id="g3064">
      <path inkscape:connector-curvature="0" style="fill:#000000;fill-opacity:1;fill-rule:nonzero;stroke:none" d="m285.0079950703125,441.01576538281256 c0.992126,-4.003937 4.9960629999999995,-14.031496 11.976378,-14.031496 c9,0 13.003937,8.007874 13.003937,18 C309.98831007031254,452.00001738281253 307.4371280703126,456.60631638281257 304.9922470703125,461.9921433828126 C302.40563307031243,467.7323003828126 298.61429407031255,472.87009638281256 295.0001210703126,478.00789138281243 C290.35838907031257,484.59844238281266 280.01193207031247,497.00001738281253 280.01193207031247,497.00001738281253 c0,0 -10.381889,-12.401575 -15.023621,-18.992126 C261.3741370703126,472.87009638281256 257.5827990703126,467.7323003828126 254.99618497031247,461.9921433828126 C252.5867361703124,456.60631638281257 250.0001220703125,452.00001738281253 250.0001220703125,444.9842693828125 c0,-9.992126 4.0039369,-18 13.003937,-18 c6.980314,0 10.984251,10.027559 12.01181,14.031496 c0.992126,0.992126 0.992126,0 0.992126,-1.0275590000000001 c-0.992126,-7.972441 -0.992126,-9.992126 -2.019685,-15.980315 C272.99618407031244,417.9842693828125 269.9843730703126,407.00001738281253 269.9843730703126,407.00001738281253 c5.031496,1.984252 15.023622,1.984252 20.019685,0 c0,0 -3.011811,10.984252 -4.003937,17.007874 c-0.992126,5.988189 -0.992126,8.007874 -1.984252,15.980315 c0,1.0275590000000001 0,2.019685 0.992126,1.0275590000000001 z" id="path3066" stroke-width="0"/>
    </g>
    <path style="fill:#000000;fill-opacity:1;stroke:none" d="m42.5001220703125,119.99999738281247 c0.5,2 2.5,7 6,7 c4.5,0 6.5,-4 6.5,-9 c0,-3.5 -1.289475,-5.80614 -2.5,-8.5 c-1.28894,-2.86836 -3.18966,-5.4287 -5,-8 c-2.32265,-3.29895 -7.5,-9.5 -7.5,-9.5 c0,0 -5.17735,6.20105 -7.5,9.5 c-1.81034,2.5713 -3.71106,5.13164 -5,8 c-1.210525,2.69386 -2.5,5 -2.5,8.5 c0,5 2,9 6.5,9 c3.5,0 5.5,-5 6,-7 c0.5,-0.5 0.5,0 0.5,0.5 c-0.5,4 -0.5,5 -1,8 c-0.5,3 -2,8.5 -2,8.5 c2.5,-1 7.5,-1 10,0 c0,0 -1.5,-5.5 -2,-8.5 c-0.5,-3 -0.5,-4 -1,-8 c0,-0.5 0,-1 0.5,-0.5 z" id="path3037-7-4-72" inkscape:connector-curvature="0" sodipodi:nodetypes="cssaacaassccsccscc"/>
    <path style="fill:#000000;fill-opacity:1;stroke:none" d="m342.5001220703125,423.99999738281247 c0.5,-2 2.5,-7 6,-7 c4.5,0 6.5,4 6.5,9 c0,3.5 -1.2894700000000001,5.80614 -2.5,8.5 c-1.28894,2.86836 -3.18966,5.4287 -5,8 c-2.32265,3.29895 -7.5,9.5 -7.5,9.5 c0,0 -5.17735,-6.20105 -7.5,-9.5 c-1.81034,-2.5713 -3.71106,-5.13164 -5,-8 c-1.21053,-2.69386 -2.5,-5 -2.5,-8.5 c0,-5 2,-9 6.5,-9 c3.5,0 5.5,5 6,7 c0.5,0.5 0.5,0 0.5,-0.5 c-0.5,-4 -0.5,-5 -1,-8 c-0.5,-3 -2,-8.5 -2,-8.5 c2.5,1 7.5,1 10,0 c0,0 -1.5,5.5 -2,8.5 c-0.5,3 -0.5,4 -1,8 c0,0.5 0,1 0.5,0.5 z" id="path3037-7-4-1-2" inkscape:connector-curvature="0" sodipodi:nodetypes="cssaacaassccsccscc"/>
  </g></g></svg>