<svg xmlns:dc="http://purl.org/dc/elements/1.1/" xmlns:cc="http://creativecommons.org/ns#" xmlns:rdf="http://www.w3.org/1999/02/22-rdf-syntax-ns#" xmlns:svg="http://www.w3.org/2000/svg" xmlns="http://www.w3.org/2000/svg" xmlns:sodipodi="http://sodipodi.sourceforge.net/DTD/sodipodi-0.dtd" xmlns:inkscape="http://www.inkscape.org/namespaces/inkscape" version="1.1" width="377.1428527832031" height="551.4285888671875" inkscape:version="0.48.4 r9939" sodipodi:docname="Anglo-american_playing_cards_deck.0.02.svg" inkscape:export-filename="D:\Users\Дмитрий\Desktop\яяяяПрочее\cards\Anglo-american_playing_cards_deck.png" inkscape:export-xdpi="90" inkscape:export-ydpi="90"><rect id="backgroundrect" width="100%" height="100%" x="0" y="0" fill="none" stroke="none"/>
  <sodipodi:namedview pagecolor="#ffffff" bordercolor="#666666" borderopacity="1" objecttolerance="10" gridtolerance="10" guidetolerance="10" inkscape:pageopacity="0" inkscape:pageshadow="2" inkscape:window-width="1366" inkscape:window-height="741" id="namedview7377" showgrid="true" inkscape:zoom="0.22960784" inkscape:cx="2550" inkscape:cy="1155" inkscape:window-x="-9" inkscape:window-y="-9" inkscape:window-maximized="1" inkscape:current-layer="svg2">
    <inkscape:grid type="xygrid" id="grid10354" empspacing="5" visible="true" enabled="true" snapvisiblegridlinesonly="true" spacingx="390px" spacingy="570px" originy="30px" originx="30px"/>
  </sodipodi:namedview>
  <metadata id="metadata14752">
    <rdf:RDF>
      <cc:Work rdf:about="">
        <dc:format>image/svg+xml</dc:format>
        <dc:type rdf:resource="http://purl.org/dc/dcmitype/StillImage"/>
        <dc:title/>
      </cc:Work>
    </rdf:RDF>
  </metadata>
  <defs id="defs14750">
    <inkscape:path-effect effect="spiro" id="path-effect17935-9-8" is_visible="true"/>
    <inkscape:path-effect effect="spiro" id="path-effect17939-4-8" is_visible="true"/>
    <inkscape:path-effect effect="spiro" id="path-effect17935-9-8-6" is_visible="true"/>
    <inkscape:path-effect effect="spiro" id="path-effect17939-4-8-5" is_visible="true"/>
    <inkscape:path-effect effect="spiro" id="path-effect17935" is_visible="true"/>
    <inkscape:path-effect effect="spiro" id="path-effect17939" is_visible="true"/>
    <inkscape:path-effect effect="spiro" id="path-effect17935-8" is_visible="true"/>
    <inkscape:path-effect effect="spiro" id="path-effect17939-6" is_visible="true"/>
    <inkscape:path-effect effect="spiro" id="path-effect17935-9-8-2-5" is_visible="true"/>
    <inkscape:path-effect effect="spiro" id="path-effect17935-9-8-2-5-0" is_visible="true"/>
    <inkscape:path-effect effect="spiro" id="path-effect17935-9-8-2-5-09-4" is_visible="true"/>
    <inkscape:path-effect effect="spiro" id="path-effect17935-9-8-2-5-09-4-1" is_visible="true"/>
    <inkscape:path-effect effect="spiro" id="path-effect17935-9-8-2" is_visible="true"/>
    <inkscape:path-effect effect="spiro" id="path-effect17939-4-8-9" is_visible="true"/>
    <inkscape:path-effect effect="spiro" id="path-effect17935-9-8-6-0" is_visible="true"/>
    <inkscape:path-effect effect="spiro" id="path-effect17939-4-8-5-3" is_visible="true"/>
    <inkscape:path-effect effect="spiro" id="path-effect17935-9-8-2-5-08" is_visible="true"/>
    <inkscape:path-effect effect="spiro" id="path-effect17935-9-8-2-5-0-8" is_visible="true"/>
    <inkscape:path-effect effect="spiro" id="path-effect17935-9-8-2-5-09-4-0" is_visible="true"/>
    <inkscape:path-effect effect="spiro" id="path-effect17935-9-8-2-5-09-4-1-8" is_visible="true"/>
    <inkscape:path-effect effect="spiro" id="path-effect17935-89" is_visible="true"/>
    <inkscape:path-effect effect="spiro" id="path-effect17939-8" is_visible="true"/>
    <inkscape:path-effect effect="spiro" id="path-effect17935-8-7" is_visible="true"/>
    <inkscape:path-effect effect="spiro" id="path-effect17939-6-0" is_visible="true"/>
  </defs>
  
  
  
  
  
  
  
  
  
  
  
  
  
  
  
  
  
  
  
  
  
  
  
  
  
  
  
  
  
  
  
  
  
  
  
  
  
  
  
  
  
  
  
  
  
  
  
  
  
  
  
  
  
<g class="currentLayer" style=""><title>Layer 1</title><g id="g3015" class="">
    <rect rx="29.944446563720703" ry="29.944446563720703" y="7.50006103515625" x="12.166748046875" height="539" width="359" id="rect6472-4" style="fill:#ffffff;stroke:#000000;stroke-width:0.99999976"/>
    <path style="fill:#ff5555;fill-opacity:1;stroke:none" id="rect3163-7-1-7-3-1" d="m41.666748046875,36.99995841796863 c-5.54,0 -10,4.46 -10,10 l0,20 l0,10 c0,5.54 4.46,10 10,10 c5.54,0 10,-4.46 10,-10 l0,-10 c0,-5.54 -4.46,-10 -10,-10 c-1.8226400000000007,0 -3.53152,0.4985500000000003 -5,1.34375 l0,-11.34375 c0,-2.77 2.23,-5 5,-5 c2.77,0 5,2.23 5,5 l0,1 l5,0 l0,-1 c0,-5.54 -4.46,-10 -10,-10 zm0,25 c2.77,0 5,2.23 5,5 l0,10 c0,2.77 -2.23,5 -5,5 c-2.77,0 -5,-2.23 -5,-5 l0,-10 c0,-2.77 2.23,-5 5,-5 z" inkscape:connector-curvature="0"/>
    <path style="fill:#ff5555;fill-opacity:1;stroke:none" id="rect3163-7-1-7-3-1-9" d="m341.666748046875,517.0000784179688 c5.54,0 10,-4.46 10,-10 l0,-20.00004 l0,-10 c0,-5.54 -4.46,-10 -10,-10 c-5.54,0 -10,4.46 -10,10 l0,10 c0,5.54004 4.46,10.00004 10,10.00004 c1.8226400000000007,0 3.53152,-0.49850000000000044 5,-1.3437000000000001 l0,11.3437 c0,2.77 -2.23,5 -5,5 c-2.77,0 -5,-2.23 -5,-5 l0,-1 l-5,0 l0,1 c0,5.54 4.46,10 10,10 zm0,-25 c-2.77,0 -5,-2.23 -5,-5.00004 l0,-10 c0,-2.77 2.23,-5 5,-5 c2.77,0 5,2.23 5,5 l0,10 c0,2.77004 -2.23,5.00004 -5,5.00004 z" inkscape:connector-curvature="0"/>
    <path sodipodi:nodetypes="czczczczc" inkscape:connector-curvature="0" id="path3204-24-1-9" d="m101.666748046875,52.00005841796883 c0,0 6,15 13,25 c7,10 17,20 17,20 c0,0 -10,10 -17,20 c-7,10 -13,25 -13,25 c0,0 -6,-15 -13,-25 c-7,-10 -17,-20 -17,-20 c0,0 10,-10 17,-20 c7,-10 13,-25 13,-25 " style="fill:#ff5555;stroke:none"/>
    <path sodipodi:nodetypes="czczczczc" inkscape:connector-curvature="0" id="path3204-24-7-9" d="m281.666748046875,52.00005841796883 c0,0 6,15 13,25 c7,10 17,20 17,20 c0,0 -10,10 -17,20 c-7,10 -13,25 -13,25 c0,0 -6,-15 -13,-25 c-7,-10 -17,-20 -17,-20 c0,0 10,-10 17,-20 c7,-10 13,-25 13,-25 " style="fill:#ff5555;stroke:none"/>
    <path sodipodi:nodetypes="czczczczc" inkscape:connector-curvature="0" id="path3204-24-25" d="m101.666748046875,232.00005841796883 c0,0 6,15 13,25 c7,10 17,20 17,20 c0,0 -10,10 -17,20 c-7,10 -13,25 -13,25 c0,0 -6,-15 -13,-25 c-7,-10 -17,-20 -17,-20 c0,0 10,-10 17,-20 c7,-10 13,-25 13,-25 " style="fill:#ff5555;stroke:none"/>
    <path sodipodi:nodetypes="czczczczc" inkscape:connector-curvature="0" id="path3204-24-4-5" d="m281.666748046875,232.00005841796883 c0,0 6,15 13,25 c7,10 17,20 17,20 c0,0 -10,10 -17,20 c-7,10 -13,25 -13,25 c0,0 -6,-15 -13,-25 c-7,-10 -17,-20 -17,-20 c0,0 10,-10 17,-20 c7,-10 13,-25 13,-25 " style="fill:#ff5555;stroke:none"/>
    <path sodipodi:nodetypes="czczczczc" inkscape:connector-curvature="0" id="path3204-24-0-3" d="m101.666748046875,412.00005841796883 c0,0 6,15 13,25 c7,10 17,20 17,20 c0,0 -10,10 -17,20 c-7,10 -13,25.00002 -13,25.00002 c0,0 -6,-15.00002 -13,-25.00002 c-7,-10 -17,-20 -17,-20 c0,0 10,-10 17,-20 c7,-10 13,-25 13,-25 " style="fill:#ff5555;stroke:none"/>
    <path sodipodi:nodetypes="czczczczc" inkscape:connector-curvature="0" id="path3204-24-9-33" d="m281.666748046875,412.00005841796883 c0,0 6,15 13,25 c7,10 17,20 17,20 c0,0 -10,10 -17,20 c-7,10 -13,25.00002 -13,25.00002 c0,0 -6,-15.00002 -13,-25.00002 c-7,-10 -17,-20 -17,-20 c0,0 10,-10 17,-20 c7,-10 13,-25 13,-25 " style="fill:#ff5555;stroke:none"/>
    <path sodipodi:nodetypes="czczczczc" inkscape:connector-curvature="0" id="path3204-24-1-4-7" d="m41.666748046875,97.00005841796883 c0,0 3,7.5 6.5,12.5 c3.5,5 8.5,10 8.5,10 c0,0 -5,5 -8.5,10 c-3.5,5 -6.5,12.5 -6.5,12.5 c0,0 -3,-7.5 -6.5,-12.5 c-3.5,-5 -8.5,-10 -8.5,-10 c0,0 5,-5 8.5,-10 c3.5,-5 6.5,-12.5 6.5,-12.5 " style="fill:#ff5555;stroke:none"/>
    <path sodipodi:nodetypes="czczczczc" inkscape:connector-curvature="0" id="path3204-24-1-8-4" d="m341.666748046875,412.00005841796883 c0,0 3,7.5 6.5,12.5 c3.5,5 8.5,10 8.5,10 c0,0 -5,5 -8.5,10 c-3.5,5 -6.5,12.5 -6.5,12.5 c0,0 -3,-7.5 -6.5,-12.5 c-3.5,-5 -8.5,-10 -8.5,-10 c0,0 5,-5 8.5,-10 c3.5,-5 6.5,-12.5 6.5,-12.5 " style="fill:#ff5555;stroke:none"/>
  </g></g></svg>