<svg xmlns:dc="http://purl.org/dc/elements/1.1/" xmlns:cc="http://creativecommons.org/ns#" xmlns:rdf="http://www.w3.org/1999/02/22-rdf-syntax-ns#" xmlns:svg="http://www.w3.org/2000/svg" xmlns="http://www.w3.org/2000/svg" xmlns:sodipodi="http://sodipodi.sourceforge.net/DTD/sodipodi-0.dtd" xmlns:inkscape="http://www.inkscape.org/namespaces/inkscape" version="1.1" width="377.1428527832031" height="551.4285888671875" inkscape:version="0.48.4 r9939" sodipodi:docname="Anglo-american_playing_cards_deck.0.02.svg" inkscape:export-filename="D:\Users\Дмитрий\Desktop\яяяяПрочее\cards\Anglo-american_playing_cards_deck.png" inkscape:export-xdpi="90" inkscape:export-ydpi="90"><rect id="backgroundrect" width="100%" height="100%" x="0" y="0" fill="none" stroke="none"/>
  <sodipodi:namedview pagecolor="#ffffff" bordercolor="#666666" borderopacity="1" objecttolerance="10" gridtolerance="10" guidetolerance="10" inkscape:pageopacity="0" inkscape:pageshadow="2" inkscape:window-width="1366" inkscape:window-height="741" id="namedview7377" showgrid="true" inkscape:zoom="0.22960784" inkscape:cx="2550" inkscape:cy="1155" inkscape:window-x="-9" inkscape:window-y="-9" inkscape:window-maximized="1" inkscape:current-layer="svg2">
    <inkscape:grid type="xygrid" id="grid10354" empspacing="5" visible="true" enabled="true" snapvisiblegridlinesonly="true" spacingx="390px" spacingy="570px" originy="30px" originx="30px"/>
  </sodipodi:namedview>
  <metadata id="metadata14752">
    <rdf:RDF>
      <cc:Work rdf:about="">
        <dc:format>image/svg+xml</dc:format>
        <dc:type rdf:resource="http://purl.org/dc/dcmitype/StillImage"/>
        <dc:title/>
      </cc:Work>
    </rdf:RDF>
  </metadata>
  <defs id="defs14750">
    <inkscape:path-effect effect="spiro" id="path-effect17935-9-8" is_visible="true"/>
    <inkscape:path-effect effect="spiro" id="path-effect17939-4-8" is_visible="true"/>
    <inkscape:path-effect effect="spiro" id="path-effect17935-9-8-6" is_visible="true"/>
    <inkscape:path-effect effect="spiro" id="path-effect17939-4-8-5" is_visible="true"/>
    <inkscape:path-effect effect="spiro" id="path-effect17935" is_visible="true"/>
    <inkscape:path-effect effect="spiro" id="path-effect17939" is_visible="true"/>
    <inkscape:path-effect effect="spiro" id="path-effect17935-8" is_visible="true"/>
    <inkscape:path-effect effect="spiro" id="path-effect17939-6" is_visible="true"/>
    <inkscape:path-effect effect="spiro" id="path-effect17935-9-8-2-5" is_visible="true"/>
    <inkscape:path-effect effect="spiro" id="path-effect17935-9-8-2-5-0" is_visible="true"/>
    <inkscape:path-effect effect="spiro" id="path-effect17935-9-8-2-5-09-4" is_visible="true"/>
    <inkscape:path-effect effect="spiro" id="path-effect17935-9-8-2-5-09-4-1" is_visible="true"/>
    <inkscape:path-effect effect="spiro" id="path-effect17935-9-8-2" is_visible="true"/>
    <inkscape:path-effect effect="spiro" id="path-effect17939-4-8-9" is_visible="true"/>
    <inkscape:path-effect effect="spiro" id="path-effect17935-9-8-6-0" is_visible="true"/>
    <inkscape:path-effect effect="spiro" id="path-effect17939-4-8-5-3" is_visible="true"/>
    <inkscape:path-effect effect="spiro" id="path-effect17935-9-8-2-5-08" is_visible="true"/>
    <inkscape:path-effect effect="spiro" id="path-effect17935-9-8-2-5-0-8" is_visible="true"/>
    <inkscape:path-effect effect="spiro" id="path-effect17935-9-8-2-5-09-4-0" is_visible="true"/>
    <inkscape:path-effect effect="spiro" id="path-effect17935-9-8-2-5-09-4-1-8" is_visible="true"/>
    <inkscape:path-effect effect="spiro" id="path-effect17935-89" is_visible="true"/>
    <inkscape:path-effect effect="spiro" id="path-effect17939-8" is_visible="true"/>
    <inkscape:path-effect effect="spiro" id="path-effect17935-8-7" is_visible="true"/>
    <inkscape:path-effect effect="spiro" id="path-effect17939-6-0" is_visible="true"/>
  </defs>
  
  
  
  
  
  
  
  
  
  
  
  
  
  
  
  
  
  
  
  
  
  
  
  
  
  
  
  
  
  
  
  
  
  
  
  
  
  
  
  
  
  
  
  
  
  
  
  
  
  
  
  
  
<g class="currentLayer" style=""><title>Layer 1</title><g id="g3028" class="">
    <rect rx="29.944446563720703" ry="29.944446563720703" y="5.8333330154418945" x="10.500002384185791" height="539" width="359" id="rect6472-070" style="fill:#ffffff;stroke:#000000;stroke-width:0.99999976"/>
    <path inkscape:connector-curvature="0" id="path3497-6" d="m37.50000238418579,35.333330398254475 l-9,50 l5,0 l2.34375,-13 l8.3125,0 l2.34375,13 l5,0 l-9,-50 l-5,0 zm2.5,13.90625 l3.25,18.09375 l-6.5,0 l3.25,-18.09375 z" style="fill:#ff5555;stroke:none"/>
    <path inkscape:connector-curvature="0" id="path3497-5-0" d="m337.5000023841858,515.3333503982544 l-9,-50.00004 l5,0 l2.34375,13 l8.3125,0 l2.34375,-13 l5,0 l-9,50.00004 l-5,0 zm2.5,-13.9063 l3.25,-18.09372 l-6.5,0 l3.25,18.09372 z" style="fill:#ff5555;stroke:none"/>
    <path sodipodi:nodetypes="csccsscssccscc" inkscape:connector-curvature="0" id="path3126-70" d="m189.0000023841858,248.33333039825447 c0,-11.04569 -5.71573,-18 -14,-18 c-8.28427,0 -15,8.95431 -15,20 c0.03490000000000004,0.95559 0.0182,1.8911900000000008 0,2.8125 c0,7.29848 2.67685,14.37684 5,21 c2.38903,6.81096 5.83357,12.78067 9.0625,18.875 c5.00123,9.439400000000001 15.9375,27.3125 15.9375,27.3125 c0,0 10.93627,-17.8731 15.9375,-27.3125 c3.22893,-6.09433 6.67347,-12.06404 9.0625,-18.875 c2.32315,-6.62316 5,-13.70152 5,-21 c-0.028400000000000036,-0.9743999999999995 -0.018600000000000005,-1.9146200000000002 0,-2.8125 c0,-11.04569 -6.71573,-20 -15,-20 c-8.28427,0 -14,6.9543099999999995 -14,18 c0,2 -2,2 -2,0 z" style="fill:#ff5555;fill-opacity:1;stroke:none"/>
    <path sodipodi:nodetypes="csccsscssccscc" inkscape:connector-curvature="0" id="path3126-1-5" d="m39.50000238418579,104.33333039825447 c0,-5.52285 -2.8578650000000003,-9 -7,-9 c-4.142135,0 -7.5,4.47715 -7.5,10 c0.017450000000000042,0.47780000000000034 0.00910000000000001,0.94559 0,1.40625 c0,3.6492400000000007 1.338425,7.18842 2.5,10.5 c1.194515,3.40548 2.916785,6.39034 4.53125,9.4375 c2.500615,4.7197000000000005 7.96875,13.65625 7.96875,13.65625 c0,0 5.468135,-8.93655 7.96875,-13.65625 c1.614465,-3.04716 3.336735,-6.03202 4.53125,-9.4375 c1.161575,-3.31158 2.5,-6.85076 2.5,-10.5 c-0.014200000000000018,-0.4872 -0.009300000000000018,-0.95731 0,-1.40625 c0,-5.52285 -3.357865,-10 -7.5,-10 c-4.142135,0 -7,3.47715 -7,9 c0,1 -1,1 -1,0 z" style="fill:#ff5555;fill-opacity:1;stroke:none"/>
    <path sodipodi:nodetypes="csccsscssccscc" inkscape:connector-curvature="0" id="path3126-1-7-67" d="m339.5000023841858,446.3333303982545 c0,5.52285 -2.85787,9 -7,9 c-4.14214,0 -7.5,-4.47715 -7.5,-10 c0.01740000000000004,-0.47780000000000034 0.009000000000000018,-0.94559 0,-1.40625 c0,-3.6492400000000007 1.3384200000000006,-7.18842 2.5,-10.5 c1.19452,-3.40548 2.91678,-6.39034 4.53125,-9.4375 c2.50061,-4.7197000000000005 7.96875,-13.65625 7.96875,-13.65625 c0,0 5.46814,8.93655 7.96875,13.65625 c1.61446,3.04716 3.33673,6.03202 4.53125,9.4375 c1.16157,3.31158 2.5,6.85076 2.5,10.5 c-0.014200000000000018,0.4872 -0.009000000000000018,0.95731 0,1.40625 c0,5.52285 -3.35787,10 -7.5,10 c-4.14214,0 -7,-3.47715 -7,-9 c0,-1 -1,-1 -1,0 z" style="fill:#ff5555;fill-opacity:1;stroke:none"/>
  </g></g></svg>